<svg id="Layer_1" data-name="Layer 1" xmlns="http://www.w3.org/2000/svg" viewBox="0 0 1399 496.5"><defs><style>.cls-1{fill:#1a1a1a;}.cls-2{fill:#fff;}.cls-3{fill:#b1b3b5;}.cls-4{fill:#808184;}</style></defs><title>Artboard 1</title><path class="cls-1" d="M1045.5,359.8a9,9,0,0,0-6.8,2.7c-1.8,1.8-3.2,4.7-4.5,8.7-1.1,3.5-1.2,6-.5,7.4s2.6,2.2,5.4,2.2h11.1l-1.7,5.6h-11.4a20.55,20.55,0,0,1-5.7-.6,8.32,8.32,0,0,1-3.4-2.2,8.54,8.54,0,0,1-2.2-5.1,21.54,21.54,0,0,1,1-7.5c1.7-5.7,4.2-9.8,7.4-12.5s7.5-4,12.6-4H1058l-1.6,5.5h-10.9Z"/><path class="cls-1" d="M1075.9,354.3h7.1l4.1,32h-7.5l-.7-7.6H1065l-5.1,7.6h-7.1Zm1.4,6.4-8.4,12.3h9.5Z"/><path class="cls-1" d="M1100.3,354.3h16.6c3.9,0,6.5.8,7.8,2.3s1.5,4,.5,7.3a12.77,12.77,0,0,1-3.5,6,10.56,10.56,0,0,1-5.7,3l4,13.4h-7.6l-3.3-12.6h-7.9l-3.8,12.6h-6.7Zm13.2,5.7h-8.3l-2.4,8.1h8.3a10.15,10.15,0,0,0,4.9-.9,4.84,4.84,0,0,0,2.2-3.1c.4-1.5.3-2.5-.3-3.1S1115.8,360,1113.5,360Z"/><path class="cls-1" d="M1146,354.3h7.1l4.1,32h-7.5l-.7-7.6h-13.9l-5.1,7.6h-7.1Zm1.4,6.4L1139,373h9.5Z"/><path class="cls-1" d="M1165.6,386.3l-4.4-32h7.6l2.5,23.8,17-23.8h7.2l-23,32Z"/><path class="cls-1" d="M1206,354.3h7.1l4.1,32h-7.5l-.7-7.6h-13.9l-5.1,7.6h-7.1Zm1.4,6.4L1199,373h9.5Z"/><path class="cls-1" d="M1230.4,354.3h8.5l6.2,23,6.6-23h6.9l-9.6,32h-7.8l-6.5-24.2-7,24.2h-6.9Z"/><path class="cls-1" d="M1292.2,360h-16.6a7.26,7.26,0,0,0-4.2,1,5.46,5.46,0,0,0-2.2,3.2c-.3,1.2-.3,2,.3,2.6a3.72,3.72,0,0,0,2.9.9h8.9q5.55,0,7.2,2.1c1.1,1.4,1.2,3.7.3,7a13.05,13.05,0,0,1-4.9,7.3,16.47,16.47,0,0,1-9.2,2.3h-17.9l1.7-5.7h16.9a9.67,9.67,0,0,0,4.3-.8,4.57,4.57,0,0,0,2-2.8,3.08,3.08,0,0,0-.2-2.9c-.5-.6-1.7-.8-3.4-.8h-7.9c-3.7,0-6.2-.7-7.4-2.2s-1.4-3.8-.5-7a13.12,13.12,0,0,1,4.9-7.4c2.3-1.6,5.3-2.4,9.2-2.4H1294Z"/><path class="cls-1" d="M271.9,492.5c-42.6,0-82.5-10.6-115.3-30.6-39-23.8-67.2-55.7-81.6-92.4-22.2-56.6-18.1-114,11.4-161.6a173.27,173.27,0,0,1,46.7-49.8c-2,.1-3.9.2-5.7.2-6.7,0-19.1-.7-25.9-2.2a75.92,75.92,0,0,1-43.4-26.8H56c-14.5,0-28.2-4.8-37.6-13.2C5.5,104.7,1,82.9,8.4,67.7c5.2-10.6,15.8-16.5,29.9-16.5,8.9,0,17.2,2.4,19.2,4.2l2.7,2.3-3.6.2c-5.1.2-12.9,4.9-14.9,8.9a2.79,2.79,0,0,0,0,3.1,1.68,1.68,0,0,0,1.5.7c2.3,0,6.3-2.3,12.1-6.7,4.9-3.8,10.4-8,19.1-9a35.53,35.53,0,0,1,4.6-.3c1.2,0,2.4.1,3.7.2C80.6,42,83,31.2,90,22.5,101.7,8.1,124.2,3,140,3a52.89,52.89,0,0,1,7.2.4c26.4,3.4,38,21,38.5,21.8l1.7,2.6-3-.4a83.35,83.35,0,0,0-9.5-.6c-8.1,0-10.2,1.7-10.7,2.5a2.5,2.5,0,0,0-.1,2.2c.3.8,2.1,1.3,4.8,1.3,7.9,0,22.5-4.1,33.5-8.1l.9-.3c.7-.3,1.4-.5,2.2-.8,32.6-11,63.3-16.7,91.1-16.7,57,0,88.4,23,102.1,37,20.5,7,36.5,21.9,47.4,44.4l6.7-.8,33.7,54.9-65.1,87.2L421,226a46.18,46.18,0,0,0-1.5-7c-15.2,35.7-49.9,67.8-89.4,82.3l-2.7,1,4.1-12.9c7-21.9,5.1-42.2-5.4-60.3,1.3,23.7-14.9,49.7-32.3,63.5l-2.2-1.7a85.14,85.14,0,0,0,5.3-12.6c-10.6,11-31.9,28.5-60.3,29.9a39.5,39.5,0,0,0,16.4,3.4,48.35,48.35,0,0,0,30.2-11l2.2,1.8c-5.8,11.1-16,16.9-25.3,21.8,2.1,1.4,4.3,2.7,6.5,4,1.8,1.1,3.7,2.3,5.5,3.4,5.3,3.4,12.7,7.6,14.6,8.2,14.4-9,15.6-17.9,15.6-18l.3-2.2,1.9,1.1c10.7,6.5,22,14,32.7,21.2,10.9-29.1,30.1-44.4,30.9-45l2.4-1.9-.1,3c-.9,29.5,17.9,54.2,34.6,55.8h612l-9.3,32.6L694.8,401.7a24.37,24.37,0,0,1-2.6,22.8l-.7,1-1.1-.6c-19.1-9.9-43-15.4-71-15.4-72.4,0-155,33.1-199.3,50.6l-1.6.6c-39.5,14-85.6,29.1-133.6,31.5C280.5,492.4,276.1,492.5,271.9,492.5ZM414,206.8a50.76,50.76,0,0,0-5.9-7.9c-3.8,1-7.8,4.5-11.1,7.9ZM228.5,127.6c2.8,0,5.6.1,8.4.2,3.8-7.9,12.6-15.8,20-17.8l2.4-.6-.6,2.4c-.9,3.6-.7,6.3.6,8,1.4,1.9,4.3,2.8,8.6,2.8,5,0,11.6-1.3,20.3-3.9,0-10.7,1-24.3,8.3-37.2-14.8,3.4-29.5,14.2-46.4,26.6-8.9,6.5-18.1,13.3-28.3,19.7C224,127.7,226.3,127.6,228.5,127.6Z"/><path class="cls-2" d="M668.6,405.5c2.9.8,5.8,1.6,8.6,2.5,2.3.7,4.9,1.6,7.6,2.6a6,6,0,0,0,.2-2.6c-1.3-7-16-22.2-63.3-34.6-16-4.2-85.2-16.1-143.7.8-30,8.7-52,14.9-75.2,22.5-16.3,5.3-33.1,10.8-50.8,15.9-12.9,3.7-59.1,15-112.1,6.8-43.8-6.8-78-25.4-100-54.3h-.1l-.2-.5a117.78,117.78,0,0,1-8.3-12.5c-24.5-42.1-22.8-88.6,4.9-127.6,28.4-40.1,78.2-62.3,121.2-54,33.4,6.4,63.5,26.2,78.6,51.6,10.6,17.9,13.9,38.3,9.7,59.5,15.7-8.9,37.7-26.8,52.6-48.8h0a110.15,110.15,0,0,0,8.4-14.4l-26.3.4c-58.1-81.6-141.4-81.1-165.6-78.9-47.8,4.2-92,31.9-118.1,74.1C69,258.6,65.3,312.2,86.1,365.2c16.9,43.2,51.1,70.9,76.7,86.6,34.2,20.9,76.3,30.8,121.6,28.5,45.1-2.2,89.2-16.1,130.2-30.8,36.3-13,131.9-51.4,201.2-51.4,24.2,0,42.2,4.1,52.8,7.4"/><path class="cls-2" d="M209.1,33.9c-1,.3-2,.7-3,1.1-15.3,5.6-32.6,12-47.2,5.8-9.4-4-10.7-9-10.1-12.4.7-4.2,4.6-7.4,10.8-9.3h0c.1,0,.1,0,.2-.1h0a15.1,15.1,0,0,0-6-3.8,27.63,27.63,0,0,0-8.9-1.8c-39.6-1.3-68.3,33.4-31.6,51.4h0c.7.3,1.4.5,2.2.8a71.61,71.61,0,0,0,8,1.9.37.37,0,0,1,.3.1c.4.1.8.1,1.3.2l1.7.3h.1c32.7,4.7,68.8-9.7,68.8-9.7-23.4,16.3-44.2,26.7-82.5,16.3-4.4-1.2-8.6-2.6-12.7-4a106.71,106.71,0,0,0-11.4-3.6l-.2.1c0-.1-.1-.1-.1-.2a37.82,37.82,0,0,0-13-1.1c-5.7.6-9.4,3.5-13.6,6.7-3.6,2.8-7.7,5.9-13.2,7.6-9.5,2.9-15.1-1.2-17.1-5.6-1.5-3.4-1.3-7.9,1.1-12.2a18.41,18.41,0,0,0-7.2,2.2c-.1,0-.1.1-.2.1-.3.2-.5.3-.8.5-.1.1-.2.2-.3.2a2.65,2.65,0,0,0-.6.5,6.47,6.47,0,0,0-.9.8h0A15.38,15.38,0,0,0,21.8,68l-.1.1a7.1,7.1,0,0,0-1,1.4c0,.1-.1.1-.1.2-.3.5-.6,1-.9,1.6s-.5,1.1-.8,1.7c0,.1-.1.2-.1.3-2.2,5.9-1.9,13.4.5,20.2.2.6.5,1.3.7,1.9a31.58,31.58,0,0,0,7.7,11.2C38,115.8,51.6,118.3,64.4,118c12.5-.4,38.3-14,50.3-10.7,6.7,1.8,9.4,6,10,9.4h0a.9.9,0,0,0,.1.5v.3a7.94,7.94,0,0,1-.1,2.2c-.1.5-.3,1-.4,1.5h0c-5.1,15.3-27.4,10.3-29.9,10.1,9.2-1.4,21-6.3,17.6-12.6h0c-1.6-2.9-4.6-3.9-8.1-3.8-6.3.1-14.4,3.7-20.3,6.4a3,3,0,0,0-.8.4c-1.9.8-3.8,1.7-5.6,2.4-.9.4-1.9.8-2.8,1.1a64.85,64.85,0,0,0,38.9,21.2,27,27,0,0,0,2.8.4,97.08,97.08,0,0,0,26.4-.3A150.45,150.45,0,0,0,160,143a168.43,168.43,0,0,0,24.5-8.6l3.3-1.5c29-13.2,52.6-32.4,74.5-46.7a23.92,23.92,0,0,1,2.1-1.3c14.3-9.1,28-16,42.2-17.4a26.35,26.35,0,0,1,2.8-.2c1-1.1,2.1-2.1,3.2-3.1a16.32,16.32,0,0,1,2-1.7,91.81,91.81,0,0,1,15.8-10.8,88.69,88.69,0,0,1,44.8-10.5c2,.1,4,.2,6,.4C351,21.4,292.8,7,209.1,33.9Z"/><path class="cls-2" d="M339.1,78.8c10.8,13.5,25.5,17.9,41.1,18.7l54-6.5C421.1,65.7,401,52.3,374.3,51.3a77.37,77.37,0,0,0-28.5,4.5c-1.5,1.2-2.9,2.4-4.2,3.5C336.5,63.3,333.9,71,339.1,78.8Z"/><path class="cls-2" d="M470.6,138l-23-40.1L342.1,110.8l-16.3,27.5s60,29.2,81.4,43.2c18.5,12.2,20.2,24.1,20.2,24.1l41.3-59.8-43.5-7Zm-79.7-26.7,51.6-.6,11.8,19.1L387,122.5Zm-4.6,48.5,12.9-19.1,13.3,3L397.6,166c-3.6-2-7.4-4.1-11.3-6.2m67.3-6.6-25.1,36.4a58.54,58.54,0,0,0-7.8-8.3l20.9-30.8Zm-19.5-4.5-18.9,28.2c-1.1-.8-2.2-1.6-3.4-2.4-2.1-1.4-4.6-2.9-7.4-4.6l16.4-24.3Z"/><path class="cls-3" d="M218.9,318.3c-4-6.5-4.9-16.2,6.1-20.2-2.6-1.6-4.6-5.5-7.2-7.1,10.1-7.1,19.7-15.8,29.6-23.3-19.5-23.7-69.5-53.2-92.6-44.8,6.2-.3,7.1,0,15.6,2A116.54,116.54,0,0,0,154,244.6c22.7,9.5,43.5,20.6,57.3,40.2-24.8-17.9-46.4-26.6-74.2-31,4,1.7,5,3.2,8.7,5.4a97.12,97.12,0,0,0-4.6,13.8c15.6,4.7,23.7,9.2,34.9,18.7-18.2-7.2-27.1-9.2-46.3-11.2,6,2.6,8.5,5.2,8.5,5.2-1.6,11.7-.9,22.6,1.2,29.4,10.2-2.2,16.8-2.1,26.2-1.2-14.1,3.4-19.7,8.7-30.4,18.2,4.7-2.1,9.1-3.8,9.1-3.8a82.19,82.19,0,0,0,6.3,11.4c24.7-17.2,52.2-21.9,68.2-21.4"/><path class="cls-3" d="M230.7,334.9c-2.3-2-4.5-4-6.7-6-37.9,2.1-59.1,20.7-69.6,32.5,4-1.8,7.7-3.6,10.1-4.7,8.7,8.8,19.3,16.2,32.6,23.2a169.81,169.81,0,0,1,33.6-45"/><path class="cls-3" d="M330.4,388.6c-5.8-9.2-5.5-18.9-7.1-28.7,2.8,3.6,5.8,7,8.5,10.6a127.37,127.37,0,0,1,2.3-14.4c-8.8-6-18-13.7-27.2-19-1.4,7.2-21.9,19.7-21.9,19.7l-4.6-3.1c-5.8-3.8-11.5-7.9-16.9-11.8-4.7-3.4-9.5-6.8-14.3-10.1-13.9,10.1-35.1,31.4-49.1,64.3a116.82,116.82,0,0,1,9.3-10.9c15.5,5.6,41.9,6.7,58.2,2.2a79.28,79.28,0,0,0-3.8,18.6c2.3-8.6,6.3-16.8,9.6-25.3,11.2,14,19,20.3,34.8,28.7C308,409.3,312.5,394.9,330.4,388.6Z"/><path class="cls-3" d="M259.4,270.9c-12.2-24.9-45-49.5-70.5-57.4a40.51,40.51,0,0,0-4.7-1.2c18-15.9,50.8-39.6,96.1-23,10.2,4.2,17.5,8.2,25.6,14.8,8.1,21,2.7,49.3-20.5,59.4A100.79,100.79,0,0,1,259.4,270.9Z"/><path class="cls-3" d="M629.2,365.7c26.5,4.5,39.9,11.8,56.9,23.5L996.4,376l2.5-10.3Z"/><path class="cls-3" d="M307.1,57.7C259.6,49.3,237.9,83,185,115.1c-14.1,8.5-32.7,18.4-48.5,15.7l.1-.1c17-27-13-46.9-38.3-41.3-20.6,4.5-33.7,23-59.1,14.6-15.3-7.7-22.8-26.9-7.8-41.3a15.8,15.8,0,0,0-8.3,4h0A15.38,15.38,0,0,0,21.9,68l-.1.1a7.1,7.1,0,0,0-1,1.4c0,.1-.1.1-.1.2-.3.5-.6,1-.9,1.6s-.5,1.1-.8,1.7c0,.1-.1.2-.1.3-2.2,5.9-1.9,13.4.5,20.2a31.17,31.17,0,0,0,8.4,13.1c10.3,9.1,23.9,11.7,36.7,11.4,12.5-.4,38.3-14,50.3-10.7,6.7,1.8,9.4,6,10,9.4h0a.9.9,0,0,0,.1.5v.3a7.94,7.94,0,0,1-.1,2.2c-.1.5-.3,1-.4,1.5h0c-5.1,15.3-27.4,10.3-29.9,10.1,9.2-1.4,21-6.3,17.6-12.6h0c-1.6-2.9-4.6-3.9-8.1-3.8-6.3.1-14.4,3.7-20.3,6.4a3,3,0,0,0-.8.4c-1.9.8-3.8,1.7-5.6,2.4-.9.4-1.9.8-2.8,1.1a64.85,64.85,0,0,0,38.9,21.2,27,27,0,0,0,2.8.4,97.08,97.08,0,0,0,26.4-.3,150.45,150.45,0,0,0,17.5-3.5A173.64,173.64,0,0,0,188,133c29-13.2,52.6-32.4,74.5-46.7a23.92,23.92,0,0,1,2.1-1.3c15.3-9.7,29.8-16.9,45-17.7,1-1.1,2.1-2.1,3.2-3.1a16.32,16.32,0,0,1,2-1.7c.5-.4,1-.9,1.4-1.2A25.45,25.45,0,0,0,307.1,57.7Z"/><path class="cls-3" d="M113.3,64.8c.7.3,1.4.5,2.2.8,11.8,3.6,24.5,3.9,36.4,2.8C88,56,113.1,7.7,159.6,18.9a.35.35,0,0,0,.2-.1c-3.2-3.8-10.4-5.4-14.8-5.6C105.4,12,76.7,46.7,113.3,64.8"/><path class="cls-3" d="M362.6,322.2c-14.9,18.9-24.2,51.4-17.4,82,51.2-17.6,110.5-33.9,128.3-38.9-24.4,0-59.3-.1-70.2-.1S365.9,348.7,362.6,322.2Z"/><path class="cls-3" d="M425.2,138.8a608.83,608.83,0,0,1-82-28.2l-1.1.1-16.3,27.5s60,29.2,81.4,43.2c18.5,12.2,20.2,24.1,20.2,24.1l41.3-59.8Zm-38.9,21,12.9-19.1,13.3,3L397.6,166c-3.6-2-7.4-4.1-11.3-6.2m28.9,17.1c-1.1-.8-2.2-1.6-3.4-2.4-2.1-1.4-4.6-2.9-7.4-4.6l16.4-24.3,13.2,3Zm5.4,4.3,20.9-30.8,12.1,2.8-25.1,36.4a66.62,66.62,0,0,0-7.9-8.4"/><path class="cls-3" d="M344.1,167c13.5,9.8,29,25.3,38.8,38.2.1.2.3.3.4.5,1.1-1.3,2.2-2.6,2.8-3.2,7.2-9.8-.3-19.6-25.7-35.5a500.46,500.46,0,0,0-46.3-25.2l20.3-38.7,45.8-5.5c-15.6-.9-30.3-5.2-41.1-18.7-5.2-7.8-2.6-15.5,2.6-19.4,1.3-1.1,2.7-2.3,4.2-3.5-16.1,5.7-30.3,16.5-38.5,30.2-7.2,12.1-7.7,25.9-7.3,37.8v1.3a130,130,0,0,0,3.9,16.9,78.54,78.54,0,0,1-11.4-11.6c-3.5,1.3-7,2.3-10.4,3.2-1.7.6-3.3,1.1-5,1.6,4.7,1.2,9.5,2.6,14.4,4.3A182.21,182.21,0,0,1,344.1,167"/><path class="cls-4" d="M141.3,273a41.09,41.09,0,0,1,14.3,2.5c2-5.9,4.9-10,7.9-15.5-9.6-3.4-16.9-4.6-26.3-6.1,4,1.7,5,3.2,8.7,5.4a95.86,95.86,0,0,0-4.6,13.7"/><path class="cls-4" d="M170.5,225a116.54,116.54,0,0,0-16.4,19.7,40.48,40.48,0,0,1,14.6,4.1c5.7-8.8,12.6-14.5,20.3-21.7-14.5-5.9-25-7.4-34-4.1,6.1-.4,7,0,15.5,2"/><path class="cls-4" d="M157,332a32.59,32.59,0,0,1-6-12.1c-6.1,3.6-10,7.4-15.5,12.3,4.7-2.1,9.1-3.8,9.1-3.8a82.19,82.19,0,0,0,6.3,11.4c2.7-1.9,4.2-5,7-6.7A10.62,10.62,0,0,1,157,332Z"/><path class="cls-4" d="M139.7,315.2a24.32,24.32,0,0,1,10.4-4.4c.1,0,0-1.2,0-1.2-.2-9.7,1.2-16.1,3.6-25.3-9.1-2.2-14.7-2.8-23.7-3.7,6,2.6,8.5,5.2,8.5,5.2-1.7,11.7-1,22.6,1.2,29.4"/><path class="cls-4" d="M170.3,346.9a98.81,98.81,0,0,0-16,14.5c4-1.8,7.7-3.6,10.1-4.7,8.7,8.8,19.3,16.2,32.6,23.2a28.88,28.88,0,0,1,4.1-13c-12.2-5-20.9-10.7-30.8-20"/><path class="cls-4" d="M330.4,388.6c-5.7-9.4-5.5-18.9-7.1-28.7,2.8,3.6,5.8,7,8.5,10.6a127.37,127.37,0,0,1,2.3-14.4c-1.3-.9-2.6-1.8-3.8-2.7-4.9-3.5-14.6-11.3-23.3-16.3,3.9,5.4,6.3,13.5,7.8,21.5,2,10.4,2.7,20.5,3.9,24.1-4.6,1.3-12.9,9.7-14.2,12.9-8.2-7-21.4-15-26.3-26.7-3.4,2.5-24.1,15.7-62.6,4-4.7,7.3-11.7,14.2-15.6,23.2a116.82,116.82,0,0,1,9.3-10.9c15.5,5.6,41.9,6.7,58.2,2.2a79.28,79.28,0,0,0-3.8,18.6c2.3-8.6,6.3-16.8,9.6-25.3,11.2,14,19,20.3,34.8,28.7C308,409.3,312.2,395.3,330.4,388.6Z"/><path class="cls-4" d="M306,204.2c-8.2-6.6-15.4-10.5-25.6-14.8-45.3-16.6-78.2,7.1-96.1,23a46.41,46.41,0,0,1,4.7,1.2,112.21,112.21,0,0,1,10.8,4.1c13.8-10,31.1-18.4,47.3-22.1,24.1,4.5,56.5,13.9,58.3,48.4,5.3-11.6,5.5-25.7,1.5-37.8-.1-.2-.2-.5-.3-.7C306.4,205,306.2,204.6,306,204.2Z"/><path class="cls-4" d="M345.9,358.1a103.7,103.7,0,0,0-.8,46.1c31.8-9.7,61.4-19.8,84.4-26.4C382.3,377.8,362.8,377.5,345.9,358.1Z"/><path class="cls-4" d="M337.5,357c.1.1.2.2.3.2V357Z"/><path class="cls-4" d="M421.2,376.6c-.3.1-.7.2-1,.3h2.1Z"/><path class="cls-1" d="M573,342c-40.8,0-54.9-13.5-45.6-43.9l22.2-72.5h45.1l-21.5,70.2c-3.5,11.6-2,13.2,12.5,13.2h25.2l25.5-83.4h45.1L646,342Z"/><path class="cls-1" d="M391.8,342l35.6-116.3H501c30,0,39,8.9,32,31.7L526.1,280H482.4l5.7-18.5c1.8-5.9,1.8-5.9-7.4-5.9H463.5L436.9,342Z"/><path class="cls-1" d="M1251.4,342,1287,225.7h73.6c30,0,39,8.9,32,31.7l-6.9,22.6H1342l5.7-18.5c1.8-5.9,1.8-5.9-7.4-5.9H1323L1296.5,342Z"/><path class="cls-1" d="M654.7,342l9.7-31.7H745c12.6,0,13.6-3.1,14.4-5.7s1.8-5.9-10.8-5.9H715.8c-32.4,0-48.3-5.6-39.3-34.9,7.9-25.7,28.3-38.2,62.6-38.2h82l-9.7,31.7H742.3c-17.8,0-18.3,1.7-19.3,5-.7,2.3-1.5,4.8,9,4.8h34.2c31,0,44.7,13.3,37.6,36.6-6.9,22.5-28.4,38.2-52.4,38.2H654.7Z"/><path class="cls-1" d="M842.3,342c-28.8,0-41.4-13-34.5-35.5,8.3-27.2,28.9-38.8,68.7-38.8h42.4c1.6-7.2-1.6-10.5-21.8-10.5H831.4l9.6-31.5h78.6c38.3,0,53.8,15.4,44.8,44.7L942.6,342Zm32.2-43.7c-14.6,0-16.1,2.5-17.5,7.3-1.3,4.2-1.7,5.5,11.2,5.5h40.3l3.9-12.7H874.5Z"/><path class="cls-1" d="M1017.1,342c-42.7,0-61.4-22.2-50-59.5,4.7-15.3,13.5-27.9,26.9-38.6,16.3-12.9,33.9-18.2,60.9-18.2h26.9l11.9-38.8h45.1L1091.3,342Zm36.4-83.8c-24.3,0-34.1,6.4-40.2,26.4-5.9,19.3-.8,25.1,21.8,25.1h21l15.8-51.5Z"/><path class="cls-1" d="M1157,342c-38.3,0-53.8-15.4-44.8-44.7l8.2-27c8.9-29.2,33.9-44.7,72.2-44.7h41.8c28.8,0,41.4,13,34.5,35.5-8.3,27.2-28.9,38.8-68.7,38.8h-42.4c-1.6,7.2,1.6,10.5,21.8,10.5h65.7l-9.6,31.5H1157Zm47.7-72.7c14.6,0,16.1-2.5,17.5-7.3,1.3-4.2,1.7-5.5-11.2-5.5h-27.4c-12.9,0-13.3,1.3-14.5,5.5l-2.2,7.3Z"/><path class="cls-1" d="M271.8,475.6c-39.5,0-76.3-9.7-106.4-28.1-25-15.2-58.2-42.2-74.6-84.1-20.2-51.5-16.6-103.5,10-146.5,25.3-40.9,68-67.7,114.3-71.7,4.2-.4,8.8-.6,13.4-.6,34.5,0,99.6,10.1,147.5,77.4l1.6,2.2,20.4-.3-1.3,2.1c-.9,1.4-1.8,2.8-2.8,4.2-13.2,19.5-30.4,33.3-39.5,39.8l-2.3,1.6.1-2.8a87.11,87.11,0,0,0-12.1-49.2c-15.8-26.6-47.2-47.3-82-54a101.88,101.88,0,0,0-19.3-1.8c-40.1,0-82,22.7-107,57.8-28.8,40.7-30.7,89.2-5.1,133.1a129,129,0,0,0,8.3,12.5l3.2,4.1c22.8,28,57.6,46.3,100.7,53a257.51,257.51,0,0,0,39.7,3,282,282,0,0,0,74.6-9.9c17.8-5,34.6-10.6,50.9-15.9l.2-.1c18.8-6.1,44.3-14.2,74.8-22.4a280.43,280.43,0,0,1,71.6-9.1c34.3,0,60.1,5.8,69.6,8.3,18.9,4.9,34.1,10.7,45.1,17.2l-1.1,2.5c-11-3.2-28.1-5.2-44.4-5.2-71,0-158.4,33.4-195.7,47.7h-.1c-4.8,1.8-8.7,3.3-11.4,4.3C372.1,459.2,328.4,473,284,475.2c-4,.3-8.1.4-12.2.4Z"/></svg>